# xmcd CD database file
#
# Track frame offsets:
#	225
#	22877
#	37195
#	53454
#	65993
#	82479
#	93391
#	113771
#	125646
#	139122
#	151446
#	162945
#	180950
#	198271
#	213448
#
# Disc length: 3131 seconds
#
# Revision: 0
# Processed by: cddbd v1.5.1PL2 Copyright (c) Steve Scherf et al.
# Submitted via: CDex 1.51
#
DISCID=d30c380f
DTITLE=COLLETTE and COUNTRY JIVEBEAT - MY CONNEMARA MARBLE RING
DYEAR=1900
DGENRE=Country
TTITLE0=TEARS OF AN EXILE
TTITLE1=SWEETHEART DARLIN OF MINE
TTITLE2=MY CONNEMARA MARLE RING
TTITLE3=ARE YOU TEASING ME
TTITLE4=LET'S START ALL OVER AGAIN
TTITLE5=KANSAS CITY
TTITLE6=MEDLEY - BLACK HILLS OF DAKOTA - PAPER ROSES -NOBOD'S DARLIN 
TTITLE7=PICTURE ON THE WALL
TTITLE8=AN ACCORDION STARTED TO PLY
TTITLE9=SWEET SWEET SMILE
TTITLE10=AS USUAL
TTITLE11=GREEN FIELDS AROUND ARBOE
TTITLE12=I'VE ENJOYED AS MUCH OF THIS AS I CAN STAND
TTITLE13=CRYSTAL CHANDELIERS
TTITLE14=MEDLEY - JIVEBEAT BOOGIE
EXTD=
EXTT0=
EXTT1=
EXTT2=
EXTT3=
EXTT4=
EXTT5=
EXTT6=
EXTT7=
EXTT8=
EXTT9=
EXTT10=
EXTT11=
EXTT12=
EXTT13=
EXTT14=
PLAYORDER=
